<mxfile host="app.diagrams.net" modified="2024-04-25T08:52:01.577Z" agent="Mozilla/5.0 (Windows NT 10.0; Win64; x64) AppleWebKit/537.36 (KHTML, like Gecko) Chrome/123.0.0.0 Safari/537.36" etag="UXw7-Z8ddjKJ3tlIvVJk" version="24.2.8" type="device">
  <diagram id="C5RBs43oDa-KdzZeNtuy" name="Page-1">
    <mxGraphModel dx="1122" dy="706" grid="1" gridSize="10" guides="1" tooltips="1" connect="1" arrows="1" fold="1" page="1" pageScale="1" pageWidth="827" pageHeight="1169" background="none" math="0" shadow="0">
      <root>
        <mxCell id="WIyWlLk6GJQsqaUBKTNV-0" />
        <mxCell id="WIyWlLk6GJQsqaUBKTNV-1" parent="WIyWlLk6GJQsqaUBKTNV-0" />
        <mxCell id="LfOLaivFTI33H5cz80AA-0" value="User" style="swimlane;fontStyle=1;align=center;verticalAlign=top;childLayout=stackLayout;horizontal=1;startSize=26;horizontalStack=0;resizeParent=1;resizeParentMax=0;resizeLast=0;collapsible=1;marginBottom=0;whiteSpace=wrap;html=1;" parent="WIyWlLk6GJQsqaUBKTNV-1" vertex="1">
          <mxGeometry x="520" y="40" width="170" height="140" as="geometry">
            <mxRectangle x="110" y="90" width="70" height="30" as="alternateBounds" />
          </mxGeometry>
        </mxCell>
        <mxCell id="LfOLaivFTI33H5cz80AA-1" value="- userName : String&lt;div&gt;- userPwd : String&lt;/div&gt;&lt;div&gt;- userId : Interger&lt;/div&gt;&lt;div style=&quot;&quot;&gt;-&lt;font style=&quot;font-size: 12px;&quot; face=&quot;Helvetica&quot;&gt;&amp;nbsp;userT&lt;span style=&quot;background-color: initial;&quot;&gt;ype : String&lt;/span&gt;&lt;/font&gt;&lt;/div&gt;&lt;div style=&quot;&quot;&gt;&lt;font style=&quot;font-size: 12px;&quot; face=&quot;Helvetica&quot;&gt;&lt;span style=&quot;background-color: initial;&quot;&gt;- userSex : String&lt;/span&gt;&lt;/font&gt;&lt;/div&gt;&lt;div style=&quot;&quot;&gt;&lt;font style=&quot;font-size: 12px;&quot; face=&quot;Helvetica&quot;&gt;&lt;span style=&quot;background-color: initial;&quot;&gt;- userPhone : String&lt;/span&gt;&lt;/font&gt;&lt;/div&gt;" style="text;strokeColor=none;fillColor=none;align=left;verticalAlign=top;spacingLeft=4;spacingRight=4;overflow=hidden;rotatable=0;points=[[0,0.5],[1,0.5]];portConstraint=eastwest;whiteSpace=wrap;html=1;" parent="LfOLaivFTI33H5cz80AA-0" vertex="1">
          <mxGeometry y="26" width="170" height="114" as="geometry" />
        </mxCell>
        <mxCell id="LfOLaivFTI33H5cz80AA-14" style="edgeStyle=orthogonalEdgeStyle;rounded=0;orthogonalLoop=1;jettySize=auto;html=1;dashed=1;endArrow=open;endFill=0;entryX=0.5;entryY=0;entryDx=0;entryDy=0;" parent="WIyWlLk6GJQsqaUBKTNV-1" source="LfOLaivFTI33H5cz80AA-5" target="LfOLaivFTI33H5cz80AA-15" edge="1">
          <mxGeometry relative="1" as="geometry">
            <mxPoint x="410" y="210" as="targetPoint" />
          </mxGeometry>
        </mxCell>
        <mxCell id="LfOLaivFTI33H5cz80AA-5" value="LoginView" style="swimlane;fontStyle=1;align=center;verticalAlign=top;childLayout=stackLayout;horizontal=1;startSize=26;horizontalStack=0;resizeParent=1;resizeParentMax=0;resizeLast=0;collapsible=1;marginBottom=0;whiteSpace=wrap;html=1;" parent="WIyWlLk6GJQsqaUBKTNV-1" vertex="1">
          <mxGeometry x="240" y="40" width="160" height="86" as="geometry" />
        </mxCell>
        <mxCell id="LfOLaivFTI33H5cz80AA-6" value="+ field: type" style="text;strokeColor=none;fillColor=none;align=left;verticalAlign=top;spacingLeft=4;spacingRight=4;overflow=hidden;rotatable=0;points=[[0,0.5],[1,0.5]];portConstraint=eastwest;whiteSpace=wrap;html=1;" parent="LfOLaivFTI33H5cz80AA-5" vertex="1">
          <mxGeometry y="26" width="160" height="26" as="geometry" />
        </mxCell>
        <mxCell id="LfOLaivFTI33H5cz80AA-7" value="" style="line;strokeWidth=1;fillColor=none;align=left;verticalAlign=middle;spacingTop=-1;spacingLeft=3;spacingRight=3;rotatable=0;labelPosition=right;points=[];portConstraint=eastwest;strokeColor=inherit;" parent="LfOLaivFTI33H5cz80AA-5" vertex="1">
          <mxGeometry y="52" width="160" height="8" as="geometry" />
        </mxCell>
        <mxCell id="LfOLaivFTI33H5cz80AA-8" value="+ method(type): type" style="text;strokeColor=none;fillColor=none;align=left;verticalAlign=top;spacingLeft=4;spacingRight=4;overflow=hidden;rotatable=0;points=[[0,0.5],[1,0.5]];portConstraint=eastwest;whiteSpace=wrap;html=1;" parent="LfOLaivFTI33H5cz80AA-5" vertex="1">
          <mxGeometry y="60" width="160" height="26" as="geometry" />
        </mxCell>
        <mxCell id="L5r3zZnxsFHYtRJGbLWJ-6" style="rounded=0;orthogonalLoop=1;jettySize=auto;html=1;dashed=1;endArrow=open;endFill=0;" edge="1" parent="WIyWlLk6GJQsqaUBKTNV-1" source="LfOLaivFTI33H5cz80AA-15" target="LfOLaivFTI33H5cz80AA-27">
          <mxGeometry relative="1" as="geometry" />
        </mxCell>
        <mxCell id="L5r3zZnxsFHYtRJGbLWJ-7" style="rounded=0;orthogonalLoop=1;jettySize=auto;html=1;entryX=0.5;entryY=0;entryDx=0;entryDy=0;dashed=1;endArrow=open;endFill=0;" edge="1" parent="WIyWlLk6GJQsqaUBKTNV-1" source="LfOLaivFTI33H5cz80AA-15" target="LfOLaivFTI33H5cz80AA-31">
          <mxGeometry relative="1" as="geometry" />
        </mxCell>
        <mxCell id="L5r3zZnxsFHYtRJGbLWJ-8" style="edgeStyle=orthogonalEdgeStyle;rounded=0;orthogonalLoop=1;jettySize=auto;html=1;dashed=1;endArrow=open;endFill=0;" edge="1" parent="WIyWlLk6GJQsqaUBKTNV-1" source="LfOLaivFTI33H5cz80AA-15" target="LfOLaivFTI33H5cz80AA-41">
          <mxGeometry relative="1" as="geometry" />
        </mxCell>
        <mxCell id="L5r3zZnxsFHYtRJGbLWJ-9" style="rounded=0;orthogonalLoop=1;jettySize=auto;html=1;entryX=0.5;entryY=0;entryDx=0;entryDy=0;dashed=1;endArrow=open;endFill=0;" edge="1" parent="WIyWlLk6GJQsqaUBKTNV-1" source="LfOLaivFTI33H5cz80AA-15" target="LfOLaivFTI33H5cz80AA-23">
          <mxGeometry relative="1" as="geometry" />
        </mxCell>
        <mxCell id="LfOLaivFTI33H5cz80AA-15" value="MainView" style="swimlane;fontStyle=1;align=center;verticalAlign=top;childLayout=stackLayout;horizontal=1;startSize=26;horizontalStack=0;resizeParent=1;resizeParentMax=0;resizeLast=0;collapsible=1;marginBottom=0;whiteSpace=wrap;html=1;" parent="WIyWlLk6GJQsqaUBKTNV-1" vertex="1">
          <mxGeometry x="240" y="200" width="160" height="120" as="geometry" />
        </mxCell>
        <mxCell id="LfOLaivFTI33H5cz80AA-17" value="" style="line;strokeWidth=1;fillColor=none;align=left;verticalAlign=middle;spacingTop=-1;spacingLeft=3;spacingRight=3;rotatable=0;labelPosition=right;points=[];portConstraint=eastwest;strokeColor=inherit;" parent="LfOLaivFTI33H5cz80AA-15" vertex="1">
          <mxGeometry y="26" width="160" height="8" as="geometry" />
        </mxCell>
        <mxCell id="LfOLaivFTI33H5cz80AA-18" value="+ 顾客管理() : void&lt;div&gt;+ 药品管理() : void&lt;/div&gt;&lt;div&gt;+ 库存管理() : void&lt;/div&gt;&lt;div&gt;+ 雇员管理() : void&lt;/div&gt;&lt;div&gt;+ 供货商管理() : void&lt;/div&gt;" style="text;strokeColor=none;fillColor=none;align=left;verticalAlign=top;spacingLeft=4;spacingRight=4;overflow=hidden;rotatable=0;points=[[0,0.5],[1,0.5]];portConstraint=eastwest;whiteSpace=wrap;html=1;" parent="LfOLaivFTI33H5cz80AA-15" vertex="1">
          <mxGeometry y="34" width="160" height="86" as="geometry" />
        </mxCell>
        <mxCell id="L5r3zZnxsFHYtRJGbLWJ-1" style="edgeStyle=orthogonalEdgeStyle;rounded=0;orthogonalLoop=1;jettySize=auto;html=1;entryX=0.5;entryY=0;entryDx=0;entryDy=0;dashed=1;endArrow=open;endFill=0;" edge="1" parent="WIyWlLk6GJQsqaUBKTNV-1" source="LfOLaivFTI33H5cz80AA-19" target="LfOLaivFTI33H5cz80AA-54">
          <mxGeometry relative="1" as="geometry" />
        </mxCell>
        <mxCell id="LfOLaivFTI33H5cz80AA-19" value="CustomerManageView" style="swimlane;fontStyle=1;align=center;verticalAlign=top;childLayout=stackLayout;horizontal=1;startSize=26;horizontalStack=0;resizeParent=1;resizeParentMax=0;resizeLast=0;collapsible=1;marginBottom=0;whiteSpace=wrap;html=1;" parent="WIyWlLk6GJQsqaUBKTNV-1" vertex="1">
          <mxGeometry x="50" y="460" width="160" height="130" as="geometry" />
        </mxCell>
        <mxCell id="LfOLaivFTI33H5cz80AA-20" value="+ field: type" style="text;strokeColor=none;fillColor=none;align=left;verticalAlign=top;spacingLeft=4;spacingRight=4;overflow=hidden;rotatable=0;points=[[0,0.5],[1,0.5]];portConstraint=eastwest;whiteSpace=wrap;html=1;" parent="LfOLaivFTI33H5cz80AA-19" vertex="1">
          <mxGeometry y="26" width="160" height="26" as="geometry" />
        </mxCell>
        <mxCell id="LfOLaivFTI33H5cz80AA-21" value="" style="line;strokeWidth=1;fillColor=none;align=left;verticalAlign=middle;spacingTop=-1;spacingLeft=3;spacingRight=3;rotatable=0;labelPosition=right;points=[];portConstraint=eastwest;strokeColor=inherit;" parent="LfOLaivFTI33H5cz80AA-19" vertex="1">
          <mxGeometry y="52" width="160" height="8" as="geometry" />
        </mxCell>
        <mxCell id="LfOLaivFTI33H5cz80AA-22" value="+ 顾客增加() : void&lt;div&gt;+ 顾客删除() : void&lt;/div&gt;&lt;div&gt;+ 顾客更新() : void&lt;/div&gt;&lt;div&gt;+ 顾客查询() : Customer&lt;/div&gt;" style="text;strokeColor=none;fillColor=none;align=left;verticalAlign=top;spacingLeft=4;spacingRight=4;overflow=hidden;rotatable=0;points=[[0,0.5],[1,0.5]];portConstraint=eastwest;whiteSpace=wrap;html=1;" parent="LfOLaivFTI33H5cz80AA-19" vertex="1">
          <mxGeometry y="60" width="160" height="70" as="geometry" />
        </mxCell>
        <mxCell id="L5r3zZnxsFHYtRJGbLWJ-0" style="edgeStyle=orthogonalEdgeStyle;rounded=0;orthogonalLoop=1;jettySize=auto;html=1;entryX=0.5;entryY=0;entryDx=0;entryDy=0;dashed=1;endArrow=open;endFill=0;" edge="1" parent="WIyWlLk6GJQsqaUBKTNV-1" source="LfOLaivFTI33H5cz80AA-23" target="LfOLaivFTI33H5cz80AA-46">
          <mxGeometry relative="1" as="geometry" />
        </mxCell>
        <mxCell id="LfOLaivFTI33H5cz80AA-23" value="DrugManageView" style="swimlane;fontStyle=1;align=center;verticalAlign=top;childLayout=stackLayout;horizontal=1;startSize=26;horizontalStack=0;resizeParent=1;resizeParentMax=0;resizeLast=0;collapsible=1;marginBottom=0;whiteSpace=wrap;html=1;" parent="WIyWlLk6GJQsqaUBKTNV-1" vertex="1">
          <mxGeometry x="250" y="460" width="160" height="130" as="geometry" />
        </mxCell>
        <mxCell id="LfOLaivFTI33H5cz80AA-24" value="+ field: type" style="text;strokeColor=none;fillColor=none;align=left;verticalAlign=top;spacingLeft=4;spacingRight=4;overflow=hidden;rotatable=0;points=[[0,0.5],[1,0.5]];portConstraint=eastwest;whiteSpace=wrap;html=1;" parent="LfOLaivFTI33H5cz80AA-23" vertex="1">
          <mxGeometry y="26" width="160" height="26" as="geometry" />
        </mxCell>
        <mxCell id="LfOLaivFTI33H5cz80AA-25" value="" style="line;strokeWidth=1;fillColor=none;align=left;verticalAlign=middle;spacingTop=-1;spacingLeft=3;spacingRight=3;rotatable=0;labelPosition=right;points=[];portConstraint=eastwest;strokeColor=inherit;" parent="LfOLaivFTI33H5cz80AA-23" vertex="1">
          <mxGeometry y="52" width="160" height="8" as="geometry" />
        </mxCell>
        <mxCell id="LfOLaivFTI33H5cz80AA-26" value="&lt;div&gt;+ 药品增加() : void&lt;/div&gt;&lt;div&gt;+ 药品删除() : void&lt;/div&gt;&lt;div&gt;+ 药品更新() : void&lt;/div&gt;&lt;div&gt;+ 药品查询() : Drug&lt;/div&gt;&lt;div&gt;&lt;br&gt;&lt;/div&gt;" style="text;strokeColor=none;fillColor=none;align=left;verticalAlign=top;spacingLeft=4;spacingRight=4;overflow=hidden;rotatable=0;points=[[0,0.5],[1,0.5]];portConstraint=eastwest;whiteSpace=wrap;html=1;" parent="LfOLaivFTI33H5cz80AA-23" vertex="1">
          <mxGeometry y="60" width="160" height="70" as="geometry" />
        </mxCell>
        <mxCell id="L5r3zZnxsFHYtRJGbLWJ-3" style="edgeStyle=orthogonalEdgeStyle;rounded=0;orthogonalLoop=1;jettySize=auto;html=1;entryX=1;entryY=0.5;entryDx=0;entryDy=0;dashed=1;endArrow=open;endFill=0;" edge="1" parent="WIyWlLk6GJQsqaUBKTNV-1" source="LfOLaivFTI33H5cz80AA-27" target="LfOLaivFTI33H5cz80AA-47">
          <mxGeometry relative="1" as="geometry" />
        </mxCell>
        <mxCell id="L5r3zZnxsFHYtRJGbLWJ-10" style="rounded=0;orthogonalLoop=1;jettySize=auto;html=1;dashed=1;endArrow=open;endFill=0;exitX=1;exitY=0;exitDx=0;exitDy=0;" edge="1" parent="WIyWlLk6GJQsqaUBKTNV-1" source="LfOLaivFTI33H5cz80AA-27" target="LfOLaivFTI33H5cz80AA-0">
          <mxGeometry relative="1" as="geometry" />
        </mxCell>
        <mxCell id="L5r3zZnxsFHYtRJGbLWJ-16" style="rounded=0;orthogonalLoop=1;jettySize=auto;html=1;dashed=1;endArrow=open;endFill=0;" edge="1" parent="WIyWlLk6GJQsqaUBKTNV-1" source="LfOLaivFTI33H5cz80AA-27" target="L5r3zZnxsFHYtRJGbLWJ-11">
          <mxGeometry relative="1" as="geometry" />
        </mxCell>
        <mxCell id="LfOLaivFTI33H5cz80AA-27" value="StockManage" style="swimlane;fontStyle=1;align=center;verticalAlign=top;childLayout=stackLayout;horizontal=1;startSize=26;horizontalStack=0;resizeParent=1;resizeParentMax=0;resizeLast=0;collapsible=1;marginBottom=0;whiteSpace=wrap;html=1;" parent="WIyWlLk6GJQsqaUBKTNV-1" vertex="1">
          <mxGeometry x="450" y="460" width="160" height="130" as="geometry" />
        </mxCell>
        <mxCell id="LfOLaivFTI33H5cz80AA-28" value="+ field: type" style="text;strokeColor=none;fillColor=none;align=left;verticalAlign=top;spacingLeft=4;spacingRight=4;overflow=hidden;rotatable=0;points=[[0,0.5],[1,0.5]];portConstraint=eastwest;whiteSpace=wrap;html=1;" parent="LfOLaivFTI33H5cz80AA-27" vertex="1">
          <mxGeometry y="26" width="160" height="26" as="geometry" />
        </mxCell>
        <mxCell id="LfOLaivFTI33H5cz80AA-29" value="" style="line;strokeWidth=1;fillColor=none;align=left;verticalAlign=middle;spacingTop=-1;spacingLeft=3;spacingRight=3;rotatable=0;labelPosition=right;points=[];portConstraint=eastwest;strokeColor=inherit;" parent="LfOLaivFTI33H5cz80AA-27" vertex="1">
          <mxGeometry y="52" width="160" height="8" as="geometry" />
        </mxCell>
        <mxCell id="LfOLaivFTI33H5cz80AA-30" value="+ 售药() : void&lt;div&gt;+ 入库() : void&lt;/div&gt;&lt;div&gt;+ 采购() : void&lt;/div&gt;" style="text;strokeColor=none;fillColor=none;align=left;verticalAlign=top;spacingLeft=4;spacingRight=4;overflow=hidden;rotatable=0;points=[[0,0.5],[1,0.5]];portConstraint=eastwest;whiteSpace=wrap;html=1;" parent="LfOLaivFTI33H5cz80AA-27" vertex="1">
          <mxGeometry y="60" width="160" height="70" as="geometry" />
        </mxCell>
        <mxCell id="LfOLaivFTI33H5cz80AA-59" style="edgeStyle=orthogonalEdgeStyle;rounded=0;orthogonalLoop=1;jettySize=auto;html=1;entryX=1;entryY=0.5;entryDx=0;entryDy=0;endArrow=open;endFill=0;dashed=1;startArrow=none;startFill=0;exitX=0.75;exitY=0;exitDx=0;exitDy=0;" parent="WIyWlLk6GJQsqaUBKTNV-1" source="LfOLaivFTI33H5cz80AA-31" target="LfOLaivFTI33H5cz80AA-1" edge="1">
          <mxGeometry relative="1" as="geometry" />
        </mxCell>
        <mxCell id="LfOLaivFTI33H5cz80AA-31" value="EmployeeManage" style="swimlane;fontStyle=1;align=center;verticalAlign=top;childLayout=stackLayout;horizontal=1;startSize=26;horizontalStack=0;resizeParent=1;resizeParentMax=0;resizeLast=0;collapsible=1;marginBottom=0;whiteSpace=wrap;html=1;" parent="WIyWlLk6GJQsqaUBKTNV-1" vertex="1">
          <mxGeometry x="650" y="460" width="160" height="130" as="geometry" />
        </mxCell>
        <mxCell id="LfOLaivFTI33H5cz80AA-32" value="+ field: type" style="text;strokeColor=none;fillColor=none;align=left;verticalAlign=top;spacingLeft=4;spacingRight=4;overflow=hidden;rotatable=0;points=[[0,0.5],[1,0.5]];portConstraint=eastwest;whiteSpace=wrap;html=1;" parent="LfOLaivFTI33H5cz80AA-31" vertex="1">
          <mxGeometry y="26" width="160" height="26" as="geometry" />
        </mxCell>
        <mxCell id="LfOLaivFTI33H5cz80AA-33" value="" style="line;strokeWidth=1;fillColor=none;align=left;verticalAlign=middle;spacingTop=-1;spacingLeft=3;spacingRight=3;rotatable=0;labelPosition=right;points=[];portConstraint=eastwest;strokeColor=inherit;" parent="LfOLaivFTI33H5cz80AA-31" vertex="1">
          <mxGeometry y="52" width="160" height="8" as="geometry" />
        </mxCell>
        <mxCell id="LfOLaivFTI33H5cz80AA-34" value="&lt;div&gt;+ 雇员增加() : void&lt;/div&gt;&lt;div&gt;+ 雇员删除() : void&lt;/div&gt;&lt;div&gt;+ 雇员更新() : void&lt;/div&gt;&lt;div&gt;+ 雇员查询() : Employee&lt;/div&gt;&lt;div&gt;&lt;br&gt;&lt;/div&gt;" style="text;strokeColor=none;fillColor=none;align=left;verticalAlign=top;spacingLeft=4;spacingRight=4;overflow=hidden;rotatable=0;points=[[0,0.5],[1,0.5]];portConstraint=eastwest;whiteSpace=wrap;html=1;" parent="LfOLaivFTI33H5cz80AA-31" vertex="1">
          <mxGeometry y="60" width="160" height="70" as="geometry" />
        </mxCell>
        <mxCell id="LfOLaivFTI33H5cz80AA-39" style="rounded=0;orthogonalLoop=1;jettySize=auto;html=1;exitX=0.5;exitY=0;exitDx=0;exitDy=0;entryX=0.5;entryY=1;entryDx=0;entryDy=0;entryPerimeter=0;startArrow=open;startFill=0;endArrow=none;endFill=0;dashed=1;" parent="WIyWlLk6GJQsqaUBKTNV-1" source="LfOLaivFTI33H5cz80AA-19" target="LfOLaivFTI33H5cz80AA-18" edge="1">
          <mxGeometry relative="1" as="geometry" />
        </mxCell>
        <mxCell id="L5r3zZnxsFHYtRJGbLWJ-2" style="edgeStyle=orthogonalEdgeStyle;rounded=0;orthogonalLoop=1;jettySize=auto;html=1;entryX=0.5;entryY=0;entryDx=0;entryDy=0;dashed=1;endArrow=open;endFill=0;" edge="1" parent="WIyWlLk6GJQsqaUBKTNV-1" source="LfOLaivFTI33H5cz80AA-41" target="LfOLaivFTI33H5cz80AA-50">
          <mxGeometry relative="1" as="geometry" />
        </mxCell>
        <mxCell id="LfOLaivFTI33H5cz80AA-41" value="&lt;span style=&quot;text-align: left;&quot;&gt;Supplier&lt;/span&gt;Manage" style="swimlane;fontStyle=1;align=center;verticalAlign=top;childLayout=stackLayout;horizontal=1;startSize=26;horizontalStack=0;resizeParent=1;resizeParentMax=0;resizeLast=0;collapsible=1;marginBottom=0;whiteSpace=wrap;html=1;" parent="WIyWlLk6GJQsqaUBKTNV-1" vertex="1">
          <mxGeometry x="850" y="460" width="160" height="130" as="geometry" />
        </mxCell>
        <mxCell id="LfOLaivFTI33H5cz80AA-42" value="+ field: type" style="text;strokeColor=none;fillColor=none;align=left;verticalAlign=top;spacingLeft=4;spacingRight=4;overflow=hidden;rotatable=0;points=[[0,0.5],[1,0.5]];portConstraint=eastwest;whiteSpace=wrap;html=1;" parent="LfOLaivFTI33H5cz80AA-41" vertex="1">
          <mxGeometry y="26" width="160" height="26" as="geometry" />
        </mxCell>
        <mxCell id="LfOLaivFTI33H5cz80AA-43" value="" style="line;strokeWidth=1;fillColor=none;align=left;verticalAlign=middle;spacingTop=-1;spacingLeft=3;spacingRight=3;rotatable=0;labelPosition=right;points=[];portConstraint=eastwest;strokeColor=inherit;" parent="LfOLaivFTI33H5cz80AA-41" vertex="1">
          <mxGeometry y="52" width="160" height="8" as="geometry" />
        </mxCell>
        <mxCell id="LfOLaivFTI33H5cz80AA-44" value="&lt;div&gt;+ 供货商增加() : void&lt;/div&gt;&lt;div&gt;+ 供货商删除() : void&lt;/div&gt;&lt;div&gt;+ 供货商更新() : void&lt;/div&gt;&lt;div&gt;+ 供货商查询() : Supplier&lt;/div&gt;&lt;div&gt;&lt;br&gt;&lt;/div&gt;" style="text;strokeColor=none;fillColor=none;align=left;verticalAlign=top;spacingLeft=4;spacingRight=4;overflow=hidden;rotatable=0;points=[[0,0.5],[1,0.5]];portConstraint=eastwest;whiteSpace=wrap;html=1;" parent="LfOLaivFTI33H5cz80AA-41" vertex="1">
          <mxGeometry y="60" width="160" height="70" as="geometry" />
        </mxCell>
        <mxCell id="LfOLaivFTI33H5cz80AA-46" value="Drug" style="swimlane;fontStyle=1;align=center;verticalAlign=top;childLayout=stackLayout;horizontal=1;startSize=26;horizontalStack=0;resizeParent=1;resizeParentMax=0;resizeLast=0;collapsible=1;marginBottom=0;whiteSpace=wrap;html=1;" parent="WIyWlLk6GJQsqaUBKTNV-1" vertex="1">
          <mxGeometry x="250" y="710" width="200" height="204" as="geometry" />
        </mxCell>
        <mxCell id="LfOLaivFTI33H5cz80AA-47" value="&lt;div&gt;- purchaseId: int&lt;/div&gt;&lt;div&gt;- supplierId: int&lt;/div&gt;&lt;div&gt;- drugId: int&lt;/div&gt;&lt;div&gt;- drugName: String&lt;/div&gt;&lt;div&gt;- drugMaker: String&lt;/div&gt;&lt;div&gt;- purchasePrice: double&lt;/div&gt;&lt;div&gt;- purchaseSalePrice: double&lt;/div&gt;&lt;div&gt;- purchaseQuantity: int&lt;/div&gt;&lt;div&gt;- purchaseDate: Date&lt;/div&gt;&lt;div&gt;&lt;br&gt;&lt;/div&gt;" style="text;strokeColor=none;fillColor=none;align=left;verticalAlign=top;spacingLeft=4;spacingRight=4;overflow=hidden;rotatable=0;points=[[0,0.5],[1,0.5]];portConstraint=eastwest;whiteSpace=wrap;html=1;" parent="LfOLaivFTI33H5cz80AA-46" vertex="1">
          <mxGeometry y="26" width="200" height="144" as="geometry" />
        </mxCell>
        <mxCell id="LfOLaivFTI33H5cz80AA-48" value="" style="line;strokeWidth=1;fillColor=none;align=left;verticalAlign=middle;spacingTop=-1;spacingLeft=3;spacingRight=3;rotatable=0;labelPosition=right;points=[];portConstraint=eastwest;strokeColor=inherit;" parent="LfOLaivFTI33H5cz80AA-46" vertex="1">
          <mxGeometry y="170" width="200" height="8" as="geometry" />
        </mxCell>
        <mxCell id="LfOLaivFTI33H5cz80AA-49" value="+ method(type): type" style="text;strokeColor=none;fillColor=none;align=left;verticalAlign=top;spacingLeft=4;spacingRight=4;overflow=hidden;rotatable=0;points=[[0,0.5],[1,0.5]];portConstraint=eastwest;whiteSpace=wrap;html=1;" parent="LfOLaivFTI33H5cz80AA-46" vertex="1">
          <mxGeometry y="178" width="200" height="26" as="geometry" />
        </mxCell>
        <mxCell id="LfOLaivFTI33H5cz80AA-50" value="&lt;span style=&quot;text-align: left;&quot;&gt;Supplier&lt;/span&gt;" style="swimlane;fontStyle=1;align=center;verticalAlign=top;childLayout=stackLayout;horizontal=1;startSize=26;horizontalStack=0;resizeParent=1;resizeParentMax=0;resizeLast=0;collapsible=1;marginBottom=0;whiteSpace=wrap;html=1;" parent="WIyWlLk6GJQsqaUBKTNV-1" vertex="1">
          <mxGeometry x="850" y="710" width="160" height="200" as="geometry" />
        </mxCell>
        <mxCell id="LfOLaivFTI33H5cz80AA-51" value="&lt;div&gt;- supplierId: int&lt;/div&gt;&lt;div&gt;- supplierName: String&lt;/div&gt;&lt;div&gt;- supplierAddress: String&lt;/div&gt;&lt;div&gt;- supplierPhone: String&lt;/div&gt;&lt;div&gt;&lt;br&gt;&lt;/div&gt;" style="text;strokeColor=none;fillColor=none;align=left;verticalAlign=top;spacingLeft=4;spacingRight=4;overflow=hidden;rotatable=0;points=[[0,0.5],[1,0.5]];portConstraint=eastwest;whiteSpace=wrap;html=1;" parent="LfOLaivFTI33H5cz80AA-50" vertex="1">
          <mxGeometry y="26" width="160" height="144" as="geometry" />
        </mxCell>
        <mxCell id="LfOLaivFTI33H5cz80AA-52" value="" style="line;strokeWidth=1;fillColor=none;align=left;verticalAlign=middle;spacingTop=-1;spacingLeft=3;spacingRight=3;rotatable=0;labelPosition=right;points=[];portConstraint=eastwest;strokeColor=inherit;" parent="LfOLaivFTI33H5cz80AA-50" vertex="1">
          <mxGeometry y="170" width="160" height="8" as="geometry" />
        </mxCell>
        <mxCell id="LfOLaivFTI33H5cz80AA-53" value="+ method(type): type" style="text;strokeColor=none;fillColor=none;align=left;verticalAlign=top;spacingLeft=4;spacingRight=4;overflow=hidden;rotatable=0;points=[[0,0.5],[1,0.5]];portConstraint=eastwest;whiteSpace=wrap;html=1;" parent="LfOLaivFTI33H5cz80AA-50" vertex="1">
          <mxGeometry y="178" width="160" height="22" as="geometry" />
        </mxCell>
        <mxCell id="LfOLaivFTI33H5cz80AA-54" value="Customer" style="swimlane;fontStyle=1;align=center;verticalAlign=top;childLayout=stackLayout;horizontal=1;startSize=26;horizontalStack=0;resizeParent=1;resizeParentMax=0;resizeLast=0;collapsible=1;marginBottom=0;whiteSpace=wrap;html=1;" parent="WIyWlLk6GJQsqaUBKTNV-1" vertex="1">
          <mxGeometry x="50" y="710" width="160" height="204" as="geometry" />
        </mxCell>
        <mxCell id="LfOLaivFTI33H5cz80AA-55" value="+ customerId : int&lt;div&gt;+ customeName : Stirng&lt;/div&gt;&lt;div&gt;+ customerReword : double&lt;/div&gt;&lt;div&gt;+ customerSex : Stirng&lt;/div&gt;&lt;div&gt;+ customerPhone : Stirng&lt;/div&gt;" style="text;strokeColor=none;fillColor=none;align=left;verticalAlign=top;spacingLeft=4;spacingRight=4;overflow=hidden;rotatable=0;points=[[0,0.5],[1,0.5]];portConstraint=eastwest;whiteSpace=wrap;html=1;" parent="LfOLaivFTI33H5cz80AA-54" vertex="1">
          <mxGeometry y="26" width="160" height="144" as="geometry" />
        </mxCell>
        <mxCell id="LfOLaivFTI33H5cz80AA-56" value="" style="line;strokeWidth=1;fillColor=none;align=left;verticalAlign=middle;spacingTop=-1;spacingLeft=3;spacingRight=3;rotatable=0;labelPosition=right;points=[];portConstraint=eastwest;strokeColor=inherit;" parent="LfOLaivFTI33H5cz80AA-54" vertex="1">
          <mxGeometry y="170" width="160" height="8" as="geometry" />
        </mxCell>
        <mxCell id="LfOLaivFTI33H5cz80AA-57" value="+ method(type): type" style="text;strokeColor=none;fillColor=none;align=left;verticalAlign=top;spacingLeft=4;spacingRight=4;overflow=hidden;rotatable=0;points=[[0,0.5],[1,0.5]];portConstraint=eastwest;whiteSpace=wrap;html=1;" parent="LfOLaivFTI33H5cz80AA-54" vertex="1">
          <mxGeometry y="178" width="160" height="26" as="geometry" />
        </mxCell>
        <mxCell id="LfOLaivFTI33H5cz80AA-58" style="rounded=0;orthogonalLoop=1;jettySize=auto;html=1;exitX=1;exitY=0.5;exitDx=0;exitDy=0;dashed=1;endArrow=open;endFill=0;entryX=0;entryY=0.391;entryDx=0;entryDy=0;entryPerimeter=0;" parent="WIyWlLk6GJQsqaUBKTNV-1" source="LfOLaivFTI33H5cz80AA-6" target="LfOLaivFTI33H5cz80AA-1" edge="1">
          <mxGeometry relative="1" as="geometry" />
        </mxCell>
        <mxCell id="L5r3zZnxsFHYtRJGbLWJ-4" style="edgeStyle=orthogonalEdgeStyle;rounded=0;orthogonalLoop=1;jettySize=auto;html=1;entryX=0.384;entryY=0.981;entryDx=0;entryDy=0;entryPerimeter=0;dashed=1;endArrow=open;endFill=0;" edge="1" parent="WIyWlLk6GJQsqaUBKTNV-1" source="LfOLaivFTI33H5cz80AA-27" target="LfOLaivFTI33H5cz80AA-57">
          <mxGeometry relative="1" as="geometry" />
        </mxCell>
        <mxCell id="L5r3zZnxsFHYtRJGbLWJ-5" style="rounded=0;orthogonalLoop=1;jettySize=auto;html=1;entryX=0.003;entryY=-0.154;entryDx=0;entryDy=0;entryPerimeter=0;dashed=1;endArrow=open;endFill=0;" edge="1" parent="WIyWlLk6GJQsqaUBKTNV-1" source="LfOLaivFTI33H5cz80AA-27" target="LfOLaivFTI33H5cz80AA-53">
          <mxGeometry relative="1" as="geometry" />
        </mxCell>
        <mxCell id="L5r3zZnxsFHYtRJGbLWJ-11" value="Stock" style="swimlane;fontStyle=1;align=center;verticalAlign=top;childLayout=stackLayout;horizontal=1;startSize=26;horizontalStack=0;resizeParent=1;resizeParentMax=0;resizeLast=0;collapsible=1;marginBottom=0;whiteSpace=wrap;html=1;" vertex="1" parent="WIyWlLk6GJQsqaUBKTNV-1">
          <mxGeometry x="580" y="950" width="220" height="244" as="geometry" />
        </mxCell>
        <mxCell id="L5r3zZnxsFHYtRJGbLWJ-12" value="&lt;div&gt;- stockId: int&lt;/div&gt;&lt;div&gt;- drugId: int&lt;/div&gt;&lt;div&gt;- drugName: String&lt;/div&gt;&lt;div&gt;- drugMaker: String&lt;/div&gt;&lt;div&gt;- drugExpiration: String&lt;/div&gt;&lt;div&gt;- productionDate: Date&lt;/div&gt;&lt;div&gt;- productionBatch: String&lt;/div&gt;&lt;div&gt;- stockPurchasePrice: double&lt;/div&gt;&lt;div&gt;- stockSalePrice: double&lt;/div&gt;&lt;div&gt;- stockPurchaseQuantity: int&lt;/div&gt;&lt;div&gt;- stockDate: Date&lt;/div&gt;&lt;div&gt;&lt;br&gt;&lt;/div&gt;" style="text;strokeColor=none;fillColor=none;align=left;verticalAlign=top;spacingLeft=4;spacingRight=4;overflow=hidden;rotatable=0;points=[[0,0.5],[1,0.5]];portConstraint=eastwest;whiteSpace=wrap;html=1;" vertex="1" parent="L5r3zZnxsFHYtRJGbLWJ-11">
          <mxGeometry y="26" width="220" height="184" as="geometry" />
        </mxCell>
        <mxCell id="L5r3zZnxsFHYtRJGbLWJ-13" value="" style="line;strokeWidth=1;fillColor=none;align=left;verticalAlign=middle;spacingTop=-1;spacingLeft=3;spacingRight=3;rotatable=0;labelPosition=right;points=[];portConstraint=eastwest;strokeColor=inherit;" vertex="1" parent="L5r3zZnxsFHYtRJGbLWJ-11">
          <mxGeometry y="210" width="220" height="8" as="geometry" />
        </mxCell>
        <mxCell id="L5r3zZnxsFHYtRJGbLWJ-14" value="+ method(type): type" style="text;strokeColor=none;fillColor=none;align=left;verticalAlign=top;spacingLeft=4;spacingRight=4;overflow=hidden;rotatable=0;points=[[0,0.5],[1,0.5]];portConstraint=eastwest;whiteSpace=wrap;html=1;" vertex="1" parent="L5r3zZnxsFHYtRJGbLWJ-11">
          <mxGeometry y="218" width="220" height="26" as="geometry" />
        </mxCell>
      </root>
    </mxGraphModel>
  </diagram>
</mxfile>
